<?xml version="1.0" encoding="utf-8"?>

<!-- Uploaded to: SVG Repo, www.svgrepo.com, Generator: SVG Repo Mixer Tools -->
<svg version="1.1" id="Icons" xmlns="http://www.w3.org/2000/svg" xmlns:xlink="http://www.w3.org/1999/xlink" 
	 viewBox="0 0 32 32" xml:space="preserve">
<style type="text/css">
	.st0{fill:none;stroke:#000000;stroke-width:2;stroke-linecap:round;stroke-linejoin:round;stroke-miterlimit:10;}
</style>
<g>
	<path d="M23,28L23,28c-1.1,0-2.1-0.7-2.5-1.8c0-0.1,0-0.2-0.1-0.2h-8.9c0,0.1,0,0.2-0.1,0.2C11.1,27.3,10.1,28,9,28h0
		c-0.6,0-1,0.4-1,1s0.4,1,1,1h14c0.6,0,1-0.4,1-1S23.6,28,23,28z"/>
</g>
<path d="M27,3H5C3.3,3,2,4.3,2,6v15c0,1.7,1.3,3,3,3h6.9h8.1H27c1.7,0,3-1.3,3-3V6C30,4.3,28.7,3,27,3z M14.7,15.6
	c0.4,0.4,0.4,0.9,0.1,1.3c-1,1.3-2.6,2.1-4.3,2.1c-3,0-5.5-2.5-5.5-5.5S7.5,8,10.5,8c1.7,0,3.2,0.8,4.3,2.1c0.3,0.4,0.3,1-0.1,1.3
	l-2.1,2.1L14.7,15.6z M17.5,15c-0.8,0-1.5-0.7-1.5-1.5s0.7-1.5,1.5-1.5s1.5,0.7,1.5,1.5S18.3,15,17.5,15z M21.5,15
	c-0.8,0-1.5-0.7-1.5-1.5s0.7-1.5,1.5-1.5s1.5,0.7,1.5,1.5S22.3,15,21.5,15z M25.5,15c-0.8,0-1.5-0.7-1.5-1.5s0.7-1.5,1.5-1.5
	s1.5,0.7,1.5,1.5S26.3,15,25.5,15z"/>
</svg>