<?xml version="1.0" encoding="utf-8"?>

<!-- Uploaded to: SVG Repo, www.svgrepo.com, Generator: SVG Repo Mixer Tools -->
<svg version="1.1" id="Icons" xmlns="http://www.w3.org/2000/svg" xmlns:xlink="http://www.w3.org/1999/xlink" 
	 viewBox="0 0 32 32" xml:space="preserve">
<style type="text/css">
	.st0{fill:none;stroke:#000000;stroke-width:2;stroke-linecap:round;stroke-linejoin:round;stroke-miterlimit:10;}
</style>
<path class="st0" d="M3,6v15c0,1.1,0.9,2,2,2h22c1.1,0,2-0.9,2-2V6c0-1.1-0.9-2-2-2H5C3.9,4,3,4.9,3,6z"/>
<line class="st0" x1="3" y1="19" x2="29" y2="19"/>
<line class="st0" x1="9" y1="29" x2="23" y2="29"/>
<path class="st0" d="M13,23c0,2.1-0.7,4.6-1.8,6"/>
<path class="st0" d="M20.8,29c-1.1-1.4-1.8-3.9-1.8-6"/>
<path class="st0" d="M12.2,11.5L15,8.7c-0.8-1-2.1-1.7-3.5-1.7C9,7,7,9,7,11.5S9,16,11.5,16c1.4,0,2.7-0.7,3.5-1.7L12.2,11.5z"/>
<circle class="st0" cx="16.5" cy="11.5" r="0.5"/>
<circle class="st0" cx="20.5" cy="11.5" r="0.5"/>
<circle class="st0" cx="24.5" cy="11.5" r="0.5"/>
</svg>